<?xml version="1.0" standalone="no"?>
<!DOCTYPE svg PUBLIC "-//W3C//DTD SVG 20010904//EN"
 "http://www.w3.org/TR/2001/REC-SVG-20010904/DTD/svg10.dtd">
<svg version="1.0" xmlns="http://www.w3.org/2000/svg"
 width="500.000000pt" height="500.000000pt" viewBox="0 0 500.000000 500.000000"
 preserveAspectRatio="xMidYMid meet">
<metadata>
Created by potrace 1.11, written by Peter Selinger 2001-2013
</metadata>
<g transform="translate(0.000000,500.000000) scale(0.100000,-0.100000)"
fill="#000000" stroke="none">
<path d="M3245 4397 c-112 -38 -191 -105 -238 -205 -106 -227 28 -483 279
-532 159 -31 332 60 404 211 91 192 7 417 -188 507 -68 31 -192 40 -257 19z"/>
<path d="M2155 3794 c-11 -2 -45 -9 -75 -15 -35 -7 -175 -70 -387 -176 l-333
-165 14 -31 c8 -18 43 -94 80 -169 l65 -137 128 60 c70 34 218 106 327 162
230 117 230 117 377 70 114 -36 123 -41 111 -56 -37 -47 -409 -714 -424 -760
-37 -118 -13 -254 61 -358 33 -46 92 -93 350 -278 334 -240 341 -246 328 -326
-3 -18 -87 -248 -188 -511 -100 -264 -184 -485 -187 -492 -3 -10 37 -12 194
-10 l198 3 81 205 c285 717 275 688 275 815 0 44 -7 108 -15 143 -28 119 -53
153 -277 378 l-209 211 161 289 c89 159 165 293 170 298 4 4 34 -42 65 -104
87 -170 184 -256 362 -322 54 -21 80 -22 391 -26 l332 -3 0 185 0 184 -312 4
c-367 4 -362 2 -414 103 -17 33 -68 134 -113 224 -69 135 -94 174 -145 226
-77 78 -102 93 -316 194 -281 132 -566 210 -675 185z"/>
<path d="M1887 2021 c-75 -95 -49 -91 -566 -91 l-451 0 0 -191 0 -190 468 3
467 3 83 29 c111 39 223 114 289 196 29 36 53 68 53 72 0 6 -251 200 -286 221
-7 4 -31 -18 -57 -52z"/>
</g>
</svg>
